<svg width="151" height="37" viewBox="0 0 151 37" fill="none" xmlns="http://www.w3.org/2000/svg">
<path d="M47.1033 24.2288H54.5195V27.5472H43.6341V9.94956H54.3938V13.268H47.1033V17.0138H53.7653V20.2819H47.1033V24.2288ZM66.097 14.9775H69.34V27.5472H66.097V26.064C65.125 27.2875 63.7591 27.8992 61.9993 27.8992C60.3233 27.8992 58.882 27.2623 57.6753 25.9886C56.4853 24.6981 55.8904 23.1227 55.8904 21.2624C55.8904 19.402 56.4853 17.835 57.6753 16.5613C58.882 15.2708 60.3233 14.6255 61.9993 14.6255C63.7591 14.6255 65.125 15.2372 66.097 16.4607V14.9775ZM60.1138 23.8266C60.7675 24.4802 61.5971 24.807 62.6026 24.807C63.6082 24.807 64.4378 24.4802 65.0915 23.8266C65.7618 23.1562 66.097 22.3015 66.097 21.2624C66.097 20.2233 65.7618 19.3769 65.0915 18.7233C64.4378 18.0529 63.6082 17.7177 62.6026 17.7177C61.5971 17.7177 60.7675 18.0529 60.1138 18.7233C59.4602 19.3769 59.1334 20.2233 59.1334 21.2624C59.1334 22.3015 59.4602 23.1562 60.1138 23.8266ZM79.4707 18.0948H76.6299V23.3238C76.6299 23.7595 76.7389 24.078 76.9567 24.2791C77.1746 24.4802 77.493 24.5975 77.912 24.6311C78.331 24.6478 78.8506 24.6394 79.4707 24.6059V27.5472C77.2416 27.7986 75.6662 27.5891 74.7444 26.9188C73.8394 26.2484 73.3869 25.05 73.3869 23.3238V18.0948H71.1998V14.9775H73.3869V12.4384L76.6299 11.4579V14.9775H79.4707V18.0948ZM95.8548 26.5417L93.0894 28.1255L91.4805 26.3908C90.123 27.3964 88.5476 27.8992 86.7543 27.8992C84.9442 27.8992 83.461 27.4299 82.3046 26.4914C81.1649 25.5361 80.5951 24.2623 80.5951 22.6702C80.5951 21.6311 80.8465 20.6674 81.3493 19.7791C81.8521 18.8909 82.5811 18.1702 83.5364 17.6171C82.9666 16.7121 82.6817 15.7317 82.6817 14.6758C82.6817 13.1842 83.2012 11.9691 84.2403 11.0306C85.2794 10.0753 86.5951 9.5976 88.1872 9.5976C89.4442 9.5976 90.5671 9.92442 91.5559 10.578C92.5615 11.2149 93.3073 12.1451 93.7934 13.3685L90.8269 15.078C90.3409 13.6702 89.4777 12.9663 88.2375 12.9663C87.6342 12.9663 87.1314 13.1423 86.7291 13.4942C86.3437 13.8462 86.1509 14.2903 86.1509 14.8266C86.1509 15.2959 86.2599 15.7233 86.4777 16.1087C86.7124 16.4942 87.0811 16.9551 87.5839 17.4914L91.3548 21.6143C91.7235 20.8266 92.0084 19.8545 92.2096 18.6981L95.1257 20.3573C94.8073 21.7149 94.2961 22.9467 93.5922 24.0528L95.8548 26.5417ZM86.9805 24.7065C87.852 24.7065 88.6314 24.497 89.3185 24.078L85.5224 19.9551C85.4889 19.9216 85.4722 19.8964 85.4722 19.8797C84.5504 20.4495 84.0895 21.2624 84.0895 22.3182C84.0895 23.0389 84.3325 23.6171 84.8185 24.0528C85.3213 24.4886 86.042 24.7065 86.9805 24.7065ZM107.667 27.5472L104.122 21.4383H101.482V27.5472H98.0131V9.94956H105.052C106.678 9.94956 108.061 10.5194 109.2 11.659C110.34 12.7987 110.91 14.173 110.91 15.7819C110.91 16.8713 110.6 17.8853 109.979 18.8238C109.359 19.7456 108.538 20.4411 107.516 20.9104L111.412 27.5472H107.667ZM101.482 13.1926V18.3964H105.052C105.706 18.3964 106.267 18.145 106.736 17.6423C107.206 17.1227 107.44 16.5026 107.44 15.7819C107.44 15.0613 107.206 14.4495 106.736 13.9467C106.267 13.444 105.706 13.1926 105.052 13.1926H101.482ZM122.219 14.9775H125.462V27.5472H122.219V26.064C121.247 27.2875 119.881 27.8992 118.121 27.8992C116.445 27.8992 115.004 27.2623 113.797 25.9886C112.607 24.6981 112.012 23.1227 112.012 21.2624C112.012 19.402 112.607 17.835 113.797 16.5613C115.004 15.2708 116.445 14.6255 118.121 14.6255C119.881 14.6255 121.247 15.2372 122.219 16.4607V14.9775ZM116.236 23.8266C116.89 24.4802 117.719 24.807 118.725 24.807C119.73 24.807 120.56 24.4802 121.214 23.8266C121.884 23.1562 122.219 22.3015 122.219 21.2624C122.219 20.2233 121.884 19.3769 121.214 18.7233C120.56 18.0529 119.73 17.7177 118.725 17.7177C117.719 17.7177 116.89 18.0529 116.236 18.7233C115.582 19.3769 115.255 20.2233 115.255 21.2624C115.255 22.3015 115.582 23.1562 116.236 23.8266ZM135.593 18.0948H132.752V23.3238C132.752 23.7595 132.861 24.078 133.079 24.2791C133.297 24.4802 133.615 24.5975 134.034 24.6311C134.453 24.6478 134.973 24.6394 135.593 24.6059V27.5472C133.364 27.7986 131.788 27.5891 130.867 26.9188C129.962 26.2484 129.509 25.05 129.509 23.3238V18.0948H127.322V14.9775H129.509V12.4384L132.752 11.4579V14.9775H135.593V18.0948ZM140.227 22.5948C140.662 24.1702 141.844 24.9579 143.771 24.9579C145.012 24.9579 145.95 24.5389 146.587 23.7009L149.202 25.2093C147.961 27.0026 146.134 27.8992 143.721 27.8992C141.643 27.8992 139.975 27.2707 138.718 26.0137C137.461 24.7568 136.833 23.173 136.833 21.2624C136.833 19.3685 137.453 17.7931 138.693 16.5361C139.933 15.2624 141.526 14.6255 143.47 14.6255C145.313 14.6255 146.83 15.2624 148.02 16.5361C149.227 17.8099 149.83 19.3853 149.83 21.2624C149.83 21.6813 149.788 22.1255 149.704 22.5948H140.227ZM140.176 20.0808H146.587C146.403 19.2261 146.017 18.5892 145.431 18.1702C144.861 17.7512 144.207 17.5417 143.47 17.5417C142.598 17.5417 141.878 17.768 141.308 18.2205C140.738 18.6562 140.361 19.2763 140.176 20.0808Z" fill="#312F45"/>
<path d="M35.3917 22.1447C35.9703 22.1447 36.5362 22.2002 37.086 22.3C35.5082 29.7406 29.418 35.5124 21.8136 36.6174C21.7883 36.3359 21.7735 36.051 21.7735 35.7629V31.5724C21.7737 26.3659 25.9946 22.1447 31.2013 22.1447H35.3917ZM19.1544 0.147644C27.6713 0.147644 34.8308 5.95587 36.8897 13.8273C36.3958 13.7862 35.8962 13.7648 35.3917 13.7648H31.2013C29.5269 13.7648 27.9065 13.9959 26.3702 14.4279C24.9519 11.9071 22.2528 10.2033 19.1544 10.2033C14.5842 10.2036 10.8791 13.9084 10.879 18.4787C10.879 21.3306 12.3224 23.8451 14.5177 25.3332C13.7912 27.2749 13.3937 29.3772 13.3937 31.5724V35.7629C13.3937 35.8039 13.3944 35.8449 13.3946 35.8859C6.09253 33.4708 0.823341 26.5905 0.823341 18.4787C0.823465 8.35474 9.03047 0.147901 19.1544 0.147644Z" fill="#6F64FE"/>
</svg>
